<svg width="18" height="18" viewBox="0 0 18 18" fill="none" xmlns="http://www.w3.org/2000/svg">
<path d="M9 10.3125L2.4375 16.875C2.25 17.0625 2.03125 17.1562 1.78125 17.1562C1.53125 17.1562 1.3125 17.0625 1.125 16.875C0.9375 16.6875 0.84375 16.4688 0.84375 16.2188C0.84375 15.9688 0.9375 15.75 1.125 15.5625L7.6875 9L1.125 2.4375C0.9375 2.25 0.84375 2.03125 0.84375 1.78125C0.84375 1.53125 0.9375 1.3125 1.125 1.125C1.3125 0.9375 1.53125 0.84375 1.78125 0.84375C2.03125 0.84375 2.25 0.9375 2.4375 1.125L9 7.6875L15.5625 1.125C15.75 0.9375 15.9688 0.84375 16.2188 0.84375C16.4688 0.84375 16.6875 0.9375 16.875 1.125C17.0625 1.3125 17.1562 1.53125 17.1562 1.78125C17.1562 2.03125 17.0625 2.25 16.875 2.4375L10.3125 9L16.875 15.5625C17.0625 15.75 17.1562 15.9688 17.1562 16.2188C17.1562 16.4688 17.0625 16.6875 16.875 16.875C16.6875 17.0625 16.4688 17.1562 16.2188 17.1562C15.9688 17.1562 15.75 17.0625 15.5625 16.875L9 10.3125Z" fill="#3E4957"/>
</svg>
