<svg width="16" height="16" viewBox="0 0 16 16" fill="none" xmlns="http://www.w3.org/2000/svg">
<path d="M6.32288 16V14.4059H2.37463C1.9905 14.4059 1.66536 14.274 1.39922 14.0102C1.13307 13.7465 1 13.4242 1 13.0435V2.9565C1 2.57579 1.13307 2.25355 1.39922 1.98978C1.66536 1.72601 1.9905 1.59412 2.37463 1.59412H6.32288V0H7.4635V16H6.32288ZM2.37463 13.2754H6.32288V11.3913H3.85154V10.2609H6.32288V8.56522H3.85154V7.43478H6.32288V5.7391H3.85154V4.60865H6.32288V2.72457H2.37463C2.31608 2.72457 2.26247 2.74875 2.21381 2.79711C2.16501 2.84534 2.14062 2.89847 2.14062 2.9565V13.0435C2.14062 13.1015 2.16501 13.1547 2.21381 13.2029C2.26247 13.2513 2.31608 13.2754 2.37463 13.2754ZM9.05751 2.72457V1.59412H12.6256C13.0097 1.59412 13.3348 1.72601 13.601 1.98978C13.867 2.25355 14 2.57579 14 2.9565V13.0435C14 13.4242 13.867 13.7465 13.601 14.0102C13.3348 14.274 13.0097 14.4059 12.6256 14.4059H9.05751V13.2754H12.6256C12.684 13.2754 12.7376 13.2513 12.7864 13.2029C12.8352 13.1547 12.8596 13.1015 12.8596 13.0435V2.9565C12.8596 2.89847 12.8352 2.84534 12.7864 2.79711C12.7376 2.74875 12.684 2.72457 12.6256 2.72457H9.05751ZM9.05751 8.56522V7.43478H11.5289V8.56522H9.05751ZM9.05751 5.7391V4.60865H11.5289V5.7391H9.05751Z" fill="#3E4957"/>
</svg>
