<svg width="16" height="12" viewBox="0 0 16 12" fill="none" xmlns="http://www.w3.org/2000/svg">
<path d="M11 3.5C11 3.22386 11.2239 3 11.5 3H13.5C13.7761 3 14 3.22386 14 3.5V4.5C14 4.77614 13.7761 5 13.5 5H11.5C11.2239 5 11 4.77614 11 4.5V3.5Z" fill="#3E4957"/>
<path d="M2 0C0.895431 0 0 0.895431 0 2V10C0 11.1046 0.895431 12 2 12H14C15.1046 12 16 11.1046 16 10V2C16 0.895431 15.1046 0 14 0H2ZM15 2V7H1V2C1 1.44772 1.44772 1 2 1H14C14.5523 1 15 1.44772 15 2ZM14 11H2C1.44772 11 1 10.5523 1 10V9H15V10C15 10.5523 14.5523 11 14 11Z" fill="#3E4957"/>
</svg>
