<svg width="18" height="18" viewBox="0 0 18 18" fill="none" xmlns="http://www.w3.org/2000/svg">
<g clip-path="url(#clip0)">
<path d="M12.3493 0H5.61331C2.51364 0 0 2.51888 0 5.625V12.375C0 15.4811 2.51364 18 5.61331 18H12.3493C15.4489 18 17.9626 15.4811 17.9626 12.375V5.625C17.9626 2.51888 15.4489 0 12.3493 0ZM16.2786 12.375C16.2786 14.5463 14.516 16.3125 12.3493 16.3125H5.61331C3.44657 16.3125 1.68399 14.5463 1.68399 12.375V5.625C1.68399 3.45375 3.44657 1.6875 5.61331 1.6875H12.3493C14.516 1.6875 16.2786 3.45375 16.2786 5.625V12.375Z" fill="white"/>
<path d="M8.98126 4.5C6.5013 4.5 4.49061 6.51487 4.49061 9C4.49061 11.4851 6.5013 13.5 8.98126 13.5C11.4612 13.5 13.4719 11.4851 13.4719 9C13.4719 6.51487 11.4612 4.5 8.98126 4.5ZM8.98126 11.8125C7.43423 11.8125 6.17461 10.5503 6.17461 9C6.17461 7.44863 7.43423 6.1875 8.98126 6.1875C10.5283 6.1875 11.7879 7.44863 11.7879 9C11.7879 10.5503 10.5283 11.8125 8.98126 11.8125Z" fill="white"/>
<path d="M13.8088 4.76217C14.1392 4.76217 14.4071 4.49371 14.4071 4.16255C14.4071 3.83139 14.1392 3.56293 13.8088 3.56293C13.4783 3.56293 13.2104 3.83139 13.2104 4.16255C13.2104 4.49371 13.4783 4.76217 13.8088 4.76217Z" fill="white"/>
</g>
<defs>
<clipPath id="clip0">
<rect width="17.9626" height="18" fill="white"/>
</clipPath>
</defs>
</svg>
