<svg width="86" height="40" viewBox="0 0 86 40" fill="none" xmlns="http://www.w3.org/2000/svg">
<path d="M16.7462 29.7124L16.7071 18.6395L11.3076 27.7491H9.39038L3.99091 18.8751V29.7124H0V11.2576H3.52139L10.4077 22.7231L17.1766 11.2576H20.6588L20.698 29.7124H16.7462Z" fill="white"/>
<path d="M39.2831 26.2963V29.7124H25.041V11.2576H38.931V14.7129H29.2667V18.718H37.7963V22.0556H29.2667V26.3356H39.2831V26.2963Z" fill="white"/>
<path d="M77.2743 29.3191L73.8702 24.3717H73.6746H70.1141V29.3191H66.0449V11.6104H73.6746C75.2397 11.6104 76.6091 11.8852 77.7438 12.3957C78.8784 12.9061 79.7784 13.6522 80.4044 14.6338C81.0304 15.5762 81.3434 16.7149 81.3434 18.0499C81.3434 19.3849 81.0304 20.4844 80.4044 21.466C79.7784 22.4084 78.8785 23.1544 77.7047 23.6649L81.6564 29.3584H77.2743V29.3191ZM76.2178 15.7725C75.5918 15.2228 74.6528 14.9872 73.4007 14.9872H70.075V21.1519H73.4007C74.6137 21.1519 75.5527 20.877 76.2178 20.3273C76.8439 19.7776 77.1569 19.0315 77.1569 18.0499C77.196 17.0683 76.883 16.283 76.2178 15.7725Z" fill="#9B27AF"/>
<path d="M63.6979 27.7882L61.3503 25.7071C61.4676 25.55 61.585 25.3537 61.7024 25.1574C62.5241 23.7831 62.9545 22.2125 62.9545 20.4455C62.9545 18.7178 62.5241 17.1472 61.7024 15.7336C60.8807 14.3593 59.7069 13.2599 58.2593 12.4746C56.8116 11.6893 55.1683 11.2966 53.3293 11.2966C51.4904 11.2966 49.847 11.6893 48.3602 12.4746C46.8734 13.2599 45.7387 14.3593 44.9171 15.7336C44.0954 17.1079 43.665 18.6786 43.665 20.4455C43.665 22.1732 44.0954 23.7438 44.9171 25.1574C45.7387 26.5317 46.9125 27.6311 48.3602 28.4164C49.847 29.2017 51.4904 29.5944 53.3293 29.5944C55.1683 29.5944 56.8116 29.2017 58.2593 28.4164C58.494 28.2986 58.7288 28.1416 58.9635 27.9845L61.5068 30.2227L63.6979 27.7882ZM53.2902 26.139C52.2338 26.139 51.2947 25.9034 50.4731 25.4322C49.6514 24.9611 48.9863 24.2935 48.4776 23.4297C48.0081 22.5659 47.7733 21.5842 47.7733 20.4848C47.7733 19.3853 48.0081 18.4037 48.4776 17.5399C48.9471 16.676 49.6123 16.0085 50.4731 15.5373C51.2947 15.0661 52.2729 14.8305 53.2902 14.8305C54.3466 14.8305 55.2856 15.0661 56.1073 15.5373C56.929 16.0085 57.5941 16.676 58.1028 17.5399C58.5723 18.4037 58.807 19.3853 58.807 20.4848C58.807 21.4272 58.6114 22.2517 58.2984 22.9978L56.2638 21.1916L54.0727 23.7046L56.0682 25.4322C55.2074 25.9034 54.3075 26.139 53.2902 26.139Z" fill="#9B27AF"/>
<path fill-rule="evenodd" clip-rule="evenodd" d="M43.9816 3.18397H48.3218V0.0427246H43.9788C42.2536 0.0427246 40.8486 1.4527 40.8486 3.18397V7.58172H43.9788V3.1868C43.9791 3.18634 43.9796 3.18584 43.9801 3.18532C43.9806 3.1848 43.9811 3.18435 43.9816 3.18397Z" fill="#9B27AF"/>
<path fill-rule="evenodd" clip-rule="evenodd" d="M78.5264 0H82.8694C84.5946 0 85.9995 1.40997 85.9995 3.14125V7.53899H82.8694V3.14407C82.869 3.14361 82.8686 3.14311 82.8681 3.14259C82.8676 3.14207 82.8671 3.14162 82.8666 3.14125H78.5264V0Z" fill="#9B27AF"/>
<path fill-rule="evenodd" clip-rule="evenodd" d="M40.8486 36.8587V32.5002H43.9788V36.8559C43.9791 36.8564 43.9796 36.8569 43.9801 36.8574C43.9806 36.8579 43.9811 36.8584 43.9816 36.8587H48.3218V40H43.9788C42.2536 40 40.8486 38.59 40.8486 36.8587Z" fill="#9B27AF"/>
<path fill-rule="evenodd" clip-rule="evenodd" d="M82.8694 36.8559V32.5002H85.9995V36.8587C85.9995 38.59 84.5946 40 82.8694 40H78.5264V36.8587H82.8666C82.8671 36.8584 82.8676 36.8579 82.8681 36.8574C82.8686 36.8569 82.869 36.8564 82.8694 36.8559ZM82.8694 36.8587C82.8694 36.8589 82.8694 36.8589 82.8694 36.859C82.8694 36.859 82.8694 36.859 82.8694 36.859C82.8694 36.859 82.8694 36.8589 82.8694 36.8587C82.8696 36.8587 82.8697 36.8587 82.8696 36.8587C82.8696 36.8587 82.8696 36.8587 82.8694 36.8587Z" fill="#9B27AF"/>
</svg>
