<svg width="110" height="35" viewBox="0 0 110 35" fill="none" xmlns="http://www.w3.org/2000/svg">
<g clip-path="url(#clip0_525_80960)">
<path d="M12.9065 24.7419L12.8863 16.2514L8.7327 23.246H7.26078L3.12732 16.4334V24.7419H0.0625V10.5911H2.76438L8.04715 19.3848L13.2493 10.5911H15.931L15.9713 24.7419H12.9065Z" fill="white"/>
<path d="M30.2485 22.1139V24.7419H19.32V10.5911H29.9864V13.2191H22.5663V16.2918H29.1193V18.839H22.5663V22.1139H30.2485Z" fill="white"/>
<path d="M103.418 2.71552H106.729V6.03448H109.437V2.71552C109.437 1.21578 108.225 0 106.729 0H103.418V2.71552Z" fill="#16B054"/>
<path d="M37.2105 2.71552V0H33.9001C32.4043 0 31.1917 1.21578 31.1917 2.71552V6.03448H33.9001V2.71552H37.2105Z" fill="#16B054"/>
<path d="M33.9001 28.9655H31.1917V32.2845C31.1917 33.7842 32.4043 35 33.9001 35H37.2105V32.2845H33.9001V28.9655Z" fill="#16B054"/>
<path d="M103.418 32.2845V35H106.729C108.225 35 109.437 33.7842 109.437 32.2845V28.9655H106.729V32.2845H103.418Z" fill="#16B054"/>
<path d="M36.3908 24.7414H39.6572V13.259H44.1738V10.5905H31.8742V13.259H36.3908V24.7414Z" fill="#16B054"/>
<path d="M45.9313 24.7414H49.1977V10.5905H45.9313V24.7414Z" fill="#16B054"/>
<path d="M59.3021 24.984C61.762 24.984 63.7985 24.0945 65.1292 22.457L63.0323 20.5163C62.0846 21.6282 60.895 22.1942 59.4835 22.1942C56.8421 22.1942 54.967 20.3344 54.967 17.6659C54.967 14.9975 56.8421 13.1377 59.4835 13.1377C60.895 13.1377 62.0846 13.7037 63.0323 14.7953L65.1292 12.8547C63.7985 11.2374 61.762 10.3479 59.3222 10.3479C54.9266 10.3479 51.6602 13.4005 51.6602 17.6659C51.6602 21.9314 54.9266 24.984 59.3021 24.984Z" fill="#16B054"/>
<path d="M76.9933 24.7414H80.8041L74.614 16.8978L80.4614 10.5905H76.832L70.5814 17.201V10.5905H67.3351V24.7414H70.5814V21.1632L72.4767 19.1821L76.9933 24.7414Z" fill="#16B054"/>
<path d="M85.5069 22.1134V18.8384H92.06V16.2913H85.5069V13.2185H92.927V10.5905H82.2606V24.7414H93.1891V22.1134H85.5069Z" fill="#16B054"/>
<path d="M98.7118 24.7414H101.978V13.259H106.495V10.5905H94.1952V13.259H98.7118V24.7414Z" fill="#16B054"/>
</g>
<defs>
<clipPath id="clip0_525_80960">
<rect width="109.375" height="35" fill="white" transform="translate(0.0625)"/>
</clipPath>
</defs>
</svg>
